<?xml version="1.0" encoding="utf-8"?>
<!-- Generator: Adobe Illustrator 23.1.0, SVG Export Plug-In . SVG Version: 6.00 Build 0)  -->
<svg version="1.1" id="Слой_1" xmlns="http://www.w3.org/2000/svg" xmlns:xlink="http://www.w3.org/1999/xlink" x="0px" y="0px"
	 viewBox="0 0 151.8260803 178.9565277" style="enable-background:new 0 0 151.8260803 178.9565277;" xml:space="preserve">
<style type="text/css">
	.st0{display:none;fill:#0871B8;stroke:#FFFFFF;stroke-width:3;stroke-miterlimit:10;}
	.st1{fill:#FFFEFE;stroke:#FFFFFF;stroke-width:5;stroke-miterlimit:10;}
	.st2{fill:#FFFEFE;stroke:#FFFFFF;stroke-width:0.75;stroke-miterlimit:10;}
	.st3{fill:#FFFEFE;stroke:#FFFFFF;stroke-width:0.25;stroke-miterlimit:10;}
</style>
<rect x="-24.810894" y="-33.8743744" class="st0" width="209.4058228" height="260.4463196"/>
<path class="st1" d="M37.9066315,29.5374126c25.8647385,0,51.6320648,0,77.4878235,0c0,0.3503876,0,0.6721554,0,0.9939213
	c0,29.7320671-0.0025406,59.4641418,0.0048599,89.1962051c0.0005875,2.350853-0.8380356,4.3782883-2.2133255,6.2286835
	c-1.329567,1.7888641-3.1002731,3.0481567-5.0081177,4.1244659c-3.0193176,1.7033081-6.1500854,3.1811829-9.4906387,4.1286011
	c-2.7679138,0.7850037-5.5804825,1.4115448-8.3692322,2.1240692c-3.2708969,0.8357391-6.3026199,2.1995087-8.9152908,4.3557892
	c-1.4772873,1.2192383-2.8256302,2.5948639-4.2319336,3.900177c-0.1639862,0.1521912-0.3272705,0.3051453-0.468483,0.4368591
	c-1.8418274-1.4884796-3.6241302-2.9838104-5.4648361-4.4033508c-2.6570053-2.049057-5.6851501-3.3743439-8.8927345-4.2770844
	c-3.7950058-1.0681-7.7014427-1.7825928-11.3250732-3.3925781c-3.2053566-1.4241486-6.4767685-2.7819977-9.1571579-5.1277084
	c-2.0018234-1.7518616-3.4580612-3.8848419-3.7997742-6.6173019c-0.0871429-0.696846-0.1496201-1.4022446-0.1497955-2.1037292
	c-0.0073318-29.5031662-0.0062904-59.0063286-0.0062904-88.509491
	C37.9066315,30.2673683,37.9066315,29.9398003,37.9066315,29.5374126z M76.673027,143.1443787
	c1.1136932-0.9851074,2.3450317-2.1052704,3.6096191-3.1865387c2.8183594-2.4097595,6.1136475-3.8962555,9.6628494-4.832016
	c2.7357941-0.721283,5.5291443-1.2376709,8.2377167-2.0441132c1.919426-0.5715027,3.7519379-1.4472046,5.6020889-2.2367554
	c2.8878632-1.2323761,5.6663284-2.6605377,7.8353882-5.0118561c1.6109238-1.7462921,2.5538101-3.7942886,2.5539017-6.2134628
	c0.001152-29.2976227,0.0007401-58.595253,0.0007401-87.8928833c0-0.3194408,0-0.6388817,0-0.9411411
	c-25.0764923,0-50.047287,0-75.0495911,0c0,0.285965,0,0.5133381,0,0.7407131
	c0,29.5010853-0.0000343,59.0021667,0.0007019,88.5032501c0.0000076,0.2029495-0.0125504,0.4096832,0.0198174,0.608284
	c0.4821167,2.9579239,2.1019669,5.2123108,4.4585838,6.9418411c2.6272087,1.9281082,5.555603,3.3655472,8.60186,4.4424362
	c3.40868,1.2050171,6.9317513,2.0882874,10.411438,3.0893402c2.5439758,0.7318573,5.0321655,1.6363068,7.2398758,3.0931702
	C72.2058487,139.7539825,74.4231567,141.5013275,76.673027,143.1443787z"/>
<path class="st2" d="M75.5379486,126.3648529c0.122261-1.1130371,0.2365723-2.1809998,0.3629227-3.2475204
	c0.00914-0.0771484,0.0913849-0.1824875,0.1640244-0.2097626c1.262291-0.4741745,1.6251678-1.6612473,1.989502-2.7348785
	c0.549324-1.6187592,1.6217804-2.6847305,3.0238876-3.5338974c0.5307312-0.3214111,1.0457916-0.6949768,1.4929428-1.12323
	c1.208107-1.1570358,1.335556-2.9457779,0.543663-4.4280548c-1.0262527-1.9209442-2.1176147-3.8384705-2.2041245-6.1115112
	c-0.72995,0.6279831-1.4137421,1.2324829-2.1158218,1.8148956c-0.5194931,0.430954-0.6618958,0.946991-0.4638824,1.5826416
	c0.1103363,0.3542252,0.2590179,0.7142639,0.2733383,1.0763168c0.0198135,0.5009918-0.0510635,0.9591904-0.6379395,1.2373123
	c-1.8971786,0.8990097-3.3768005,2.3473053-4.7662811,3.8743896c-1.1124802,1.2226334-2.128952,2.5322037-3.211998,3.7824097
	c-0.5076447,0.5859909-1.1227722,1.0846481-1.5856018,1.7007751c-0.1888351,0.2513733-0.1820831,0.7218323-0.1265945,1.070694
	c0.1373901,0.8636551-0.2210388,1.3186569-1.00383,1.6298904c-0.9186935,0.3652802-1.7947922,0.8377838-2.769371,1.3018799
	c-0.1811447-1.7306519,0.0815353-3.2785416,0.7085571-4.7699127c0.0738144-0.1755524,0.218689-0.353241,0.3783035-0.4552536
	c0.8183441-0.5229874,1.459465-1.0724869,1.7120361-2.150238c0.3661957-1.5626526,1.5504837-2.6217957,2.8301239-3.5474777
	c0.9709091-0.7023315,1.8914032-1.4741516,2.8566895-2.1846466c0.5297546-0.3899307,0.5821381-0.8748398,0.3989716-1.4307709
	c-0.1863861-0.5657425-0.3817368-1.1303558-0.6103058-1.6799927c-0.4791641-1.1522446-0.5463638-2.3288345-0.2489395-3.5289383
	c0.0495758-0.2000122,0.191803-0.377037,0.298172-0.5778046c-0.2767639-0.2228546-0.5778122-0.5523224-0.9491272-0.7489853
	c-1.5208664-0.8054886-2.6855698-0.4213333-3.5056,1.0897751c-0.1891708,0.3486023-0.4267273,0.6728439-0.6604233,0.9949188
	c-0.4647141,0.6404495-0.9753723,0.6878357-1.6309204,0.1763763c-2.1688766-1.6922073-2.7381935-2.0219727-4.1536674-2.3059921
	c0.1228638,1.4693756,0.2718048,2.9468231-0.4126854,4.3157272c-0.2240143,0.4480133-0.1639824,0.7715912-0.0305748,1.241066
	c0.3235016,1.1383743,1.3143578,0.9003067,2.0452156,1.1002731c0.5761871,0.1576538,0.7102051,0.3182983,0.5151749,0.863739
	c-0.2162933,0.6049194-0.3778381,1.2308197-0.5373001,1.8542175c-0.1110344,0.4340439-0.1783752,0.8792801-0.2855034,1.4222641
	c-0.7117424-0.0767441-1.298584-0.6170044-1.9170685-1.0719833c-0.5638542-0.4147873-1.128849-0.8378525-1.6321526-1.3210754
	c-0.2567406-0.2464981-0.53619-0.6334152-0.5354309-0.9562149c0.003521-1.4902496-0.0281143-2.9528503-0.6242943-4.3630219
	c-0.4021683-0.9512787,0.1900482-1.8347397,0.3466225-2.7464828c0.0657005-0.3825989,0.1834602-0.7562408,0.3045807-1.2424469
	c-1.1804237,0.1959915-2.2434769,0.4149017-3.3176613,0.5271988c-0.3618698,0.0378342-0.7753372-0.146225-1.1247635-0.3134842
	c-0.9630966-0.4609985-1.9047928-0.9667358-2.7844009-1.418541c-0.8291855,2.7941284-1.2345772,5.5719986-0.4295464,8.5116119
	c0.4703712,0.1038971,1.0935898,0.2415466,1.8443565,0.4073715c-0.4097519,1.2284851,0.1942177,2.6511459-0.760067,3.9624863
	c-0.9073792-0.9824142-1.818512-1.8784637-2.6163559-2.8661118c-0.4912949-0.6081772-0.7096825-1.4455643-1.2257767-2.0234375
	c-1.1846161-1.3264313-0.2741623-2.6671066-0.1116943-3.9678345c0.302166-2.4190979,0.7753067-4.8166122,1.1647224-7.2251434
	c0.1174889-0.7266617,0.2152061-1.4498444,1.0897446-1.6661072c0.1875572-0.0463867,0.4036522-0.1057816,0.5778809-0.0568542
	c1.191494,0.3346481,2.3753242,0.6966019,3.5827141,1.0560303c0.5047646-0.7830429,0.5863991-1.5722885,0.0989418-2.3964691
	c-1.5523491-2.624649-0.6699867-4.9450912,0.937088-7.1457672c0.6043892-0.8276291,1.3463478-1.5548401,1.9488335-2.3836823
	c1.068985-1.4706116,1.134388-1.8917084,0.8409996-3.7704544c-0.8606377,0.1053543-1.6431274,0.2633209-1.8298035,1.335289
	c-0.0663376,0.380928-0.3796577,0.7189865-0.4450684,1.0998535c-0.1481895,0.8628387-0.6829567,0.9829254-1.4178658,0.9172974
	c-0.6997337-0.0624847-0.7738686-0.1771774-0.4028473-0.8049393c0.0678635-0.11483,0.1045685-0.2480927,0.1522141-0.3644257
	c-0.4767227,0.0870819-0.9079704,0.2166443-1.3439293,0.2351532c-0.9709244,0.0412216-1.236496-0.1907196-1.3372459-1.1716614
	c-0.1531143-1.490799,0.1972923-2.8612442,0.9599686-4.1620178c0.5022926-0.8566895,0.8756523-1.7898788,1.2892647-2.696785
	c0.0552597-0.1211624,0.0075989-0.2893219,0.0075989-0.5134735c-0.7026787,0.1751862-1.3577576,0.3385086-1.9644775,0.489769
	c-0.1494064-0.3569717-0.2630348-0.6284637-0.4530182-1.0823898c0.5346909-1.2480316,1.6726189-2.1236801,3.259861-2.5704269
	c-0.4170418-0.7728577-0.8197403-1.5191422-1.2489738-2.3145981c1.4878464,0.2543488,2.7582397,0.7112045,3.4993973,2.0834732
	c0.0686111,0.1270294,0.4012642,0.2205582,0.5497589,0.1649857c0.1540833-0.057663,0.3352127-0.3209152,0.3266296-0.4849396
	c-0.0285645-0.5456848-0.1632881-1.085083-0.2069473-1.630928c-0.0380478-0.4757385-0.0079269-0.9569321-0.0079269-1.4357071
	c0.1023903-0.046402,0.2047729-0.0927963,0.3071632-0.1391907c0.752861,0.8983307,1.505722,1.7966614,2.4536018,2.9276962
	c0.5472565-0.2369995,1.3445282-0.6532059,2.1881981-0.9255905c0.698288-0.225441,1.4500656-0.3763046,2.1804657-0.3860474
	c0.7748413-0.0103302,0.980423,0.3796387,1.0775604,1.5725861c0.5278244,0.081192,1.0614548,0.1632843,1.6738892,0.2574921
	c-0.0754089,0.3282852-0.1196518,0.5909958-0.1967392,0.8436584c-0.2548981,0.835434-0.0526199,1.3606567,0.6185837,1.8854523
	c0.7937622,0.6206207,1.5756226,1.2741699,1.7520523,2.4013596c-0.3158188,0.0204544-0.6322632,0.0409622-1.0059433,0.0651703
	c0.3010712,0.6875916,0.5845566,1.3349991,0.7879028,1.7994156c0.2405853-0.6297989,0.5286331-1.3776245,0.8102875-2.1278534
	c0.0424118-0.1129684,0.1094131-0.257843,0.073288-0.3531265c-0.7841263-2.0678864,0.0148163-3.9194565,0.7904816-5.7655716
	c0.7992477-1.9022598,1.5542297-3.8291473,2.4713821-5.6742096c1.0186157-2.0491714,2.1721573-4.033577,3.3304977-6.0088844
	c0.2342606-0.3994827,0.7524414-0.6323128,1.1397247-0.9419708c0.0665894,0.0486031,0.1331863,0.0972023,0.1997757,0.1458015
	c-0.192749,1.7714539-0.3913727,3.5422974-0.5745163,5.314743c-0.0518112,0.5014305-0.0755005,1.0072937-0.082695,1.5115356
	c-0.0271454,1.9027328-1.0229797,3.5129623-1.5733261,5.2572708c-0.1615982,0.5121765-0.3525085,1.0151062-0.4637527,1.554184
	c1.5349731-1.3723526,2.133255-3.364624,3.3492508-4.9690704c0.3186111,1.6242371,0.3047485,3.2109528-0.1981659,4.9723434
	c0.6904297-0.2921143,1.2721405-0.5382233,2.116478-0.8954544c-0.2195282,1.078392-0.4014893,1.9722748-0.5963745,2.9296265
	c0.6341553-0.0950623,1.3506699-0.2024765,2.2208176-0.3329239c-0.2730484,0.8751755-0.5092621,1.632309-0.8074722,2.58815
	c2.373291-2.9181747,4.6331406-5.6968613,6.8929901-8.4755402c-0.0497055-0.0493088-0.099411-0.0986176-0.1491165-0.1479263
	c0.3010712-0.0165482,0.6021423-0.0330963,0.9614105-0.0528488c0.5076752-1.9807816,1.8131027-3.4774323,3.1366806-4.9752235
	c0.976326-1.1048317,1.7648239-2.3279305,2.3001099-3.7317581c0.1977692-0.5186501,0.7902145-0.8866539,1.3069305-1.2446251
	c0.0089264,3.5666542,0.3261337,7.1364059-2.3079758,10.0540695c0.780365-0.5772858,1.4251785-1.2430725,2.5395813-0.9031219
	c-0.8511658,2.2840042-1.6980133,4.5564194-2.5552902,6.8568268c1.0151367-0.3995743,1.7838364-1.4845047,3.0890579-1.4421844
	c0.3407288,3.2133026-1.7645264,5.3406601-3.3119125,7.7796783c1.245018-0.5461426,2.4066772-1.0557175,3.5683441-1.5652924
	c0.0400238,0.0588837,0.08004,0.1177673,0.1200562,0.1766586c-0.1630249,0.1751862-0.3205185,0.3559494-0.4900818,0.524559
	c-0.5865479,0.5832062-1.1461639,1.1520462-1.4513397,1.9798355c-0.152565,0.4138718-0.7207565,0.6770401-1.106636,1.0016327
	c-1.2219086,1.0278702-2.4464874,2.0525513-3.799942,3.1874008c0.9382172,0.1783218,1.3356476,0.0329742,3.298111-1.0774384
	c-0.078125,0.2008438-0.1178741,0.3182907-0.1685791,0.4307938c-0.2495422,0.5537109-0.4730377,1.1220169-0.7642517,1.653038
	c-0.1757584,0.3204803-0.4156342,0.6363525-0.7001572,0.8612823c-1.3034973,1.0304794-2.6329117,2.0281219-3.8270874,2.9412613
	c0.9070511,0.1729355,2.0392075,0.2500153,3.0634537,0.6234055c1.007782,0.3673782,1.9061127,1.0353012,2.7593689,1.518631
	c0.0299454-0.065918,0.0693283-0.3918228,0.2411041-0.4932251c1.4828568-0.8752975,3.0700302-1.5067978,4.8195343-1.3784103
	c2.686882,0.1971588,4.1716919,1.6205978,3.9753799,3.9646454c-0.1023636,1.2222443-0.7935944,2.3866425-1.1422043,3.5992279
	c-0.3143692,1.0934906-0.6495667,2.2055664-0.7525406,3.3298874c-0.1794281,1.9590836-0.0576172,3.9178925,0.7335815,5.7692413
	c0.0592041,0.1385269,0.1910248,0.2766724,0.3247757,0.3479462c1.5133972,0.8063202,2.4105988,2.1422424,2.8487549,3.7107773
	c0.4861374,1.7402878,0.7630005,3.5414047,1.0843964,5.3244476c0.1620712,0.8990707,0.2211761,1.8167191,0.2249527,2.7738037
	c-1.3147888-1.2933426-2.873909-2.2865143-3.1672974-4.4176941c-0.2438049-1.7710571-1.0216141-3.4450836-2.4343491-4.6964951
	c-0.1960526-0.1736679-0.4253769-0.3097458-0.7753906-0.5608673c0.1777267,1.0792923,0.3266068,1.9833984,0.4845657,2.9426422
	c-2.0068283,0.2289886-2.4728622-1.3973618-3.2739487-2.6966171c-0.3295364,0.4834442-0.658783,0.9664612-1.0300827,1.5111694
	c-1.7332458-3.086731-1.2596359-6.271698-0.7148743-9.5582428c-0.3727798,0.6133957-0.6634216,1.1824951-1.0384445,1.6890793
	c-0.6979446,0.9427795-1.4176712,1.8725128-2.1787338,2.7646255c-0.9151459,1.0727158-1.9057922,2.0809937-2.8204575,3.1540985
	c-0.7049637,0.8270645-0.5417252,1.8410873-0.4440689,2.8146744c0.0419693,0.4184647,0.1640625,0.8285141,0.2422714,1.243782
	c0.1572266,0.8348618-0.1871719,1.391037-0.8870392,1.8582306c-1.3664932,0.9122086-2.705986,1.8681946-4.0203476,2.8545151
	c-1.9882431,1.4920044-3.5211868,3.3308411-4.1355896,5.8444366c-0.6936035,0-1.3476257,0-2.0898056,0
	c0,0.5471878,0.0327911,1.0507889-0.0159988,1.5463562c-0.0197678,0.2007599-0.1808014,0.5075302-0.3401871,0.5548096
	C77.5053101,125.899292,76.5629959,126.1103668,75.5379486,126.3648529z M62.6648331,112.8507004
	c0.2199059-0.710556,0.3839912-1.3330688,0.607048-1.93367c0.1953278-0.5259399,0.1518822-0.8155899-0.5000153-0.8398895
	c-0.9455185-0.0352707-1.6713676-0.4147797-1.9416656-1.4092102c-0.0452385-0.1664276-0.1839828-0.3162384-0.1975136-0.4804764
	c-0.0220604-0.267746-0.0570107-0.581337,0.0547752-0.8048325c0.4183197-0.8363724,0.7915573-1.6729355,0.7093697-2.6382904
	c-0.0714417-0.8391571-0.1476936-1.6779251-0.2249298-2.552063c0.0607071-0.009491,0.1562386-0.031929,0.2527313-0.0374298
	c0.1010284-0.0057602,0.206234-0.0104904,0.3040428,0.0104294c1.7486992,0.3739166,3.2485199,1.2448349,4.5762787,2.4029007
	c0.4848938,0.4229202,0.7255249,0.4110718,1.0087433-0.1588364c0.2962265-0.5960617,0.544632-1.2713852,1.0017776-1.7208176
	c1.0724258-1.0543365,3.3842697-0.9352112,4.4907913,0.1115952c0.1749573,0.1655197,0.3873901,0.3761826,0.6020508,0.4017639
	c2.0808563,0.2479553,4.1489792,0.2229309,6.2399673-0.0653534c0.9562836-0.1318436,1.1633911-0.6044998,1.4661255-1.3337631
	c0.9993591-2.4074554,2.4243927-3.0398026,4.6680756-3.1174164c-0.181839,0.2011871-0.3188324,0.3751297-0.4782257,0.5252686
	c-0.7258453,0.6836929-1.4949875,1.3256378-2.1792068,2.0483093c-1.0292435,1.0870819-1.7037354,2.3890457-1.5708237,3.9130707
	c0.146492,1.6795807,0.8444061,3.2057648,1.6431961,4.6811676c0.3873749,0.7154846,0.9517975,1.4347992,1.0350037,2.1962509
	c0.2306747,2.1111221-0.467514,3.850647-2.4642181,4.9410553c-1.5611954,0.8525925-2.7122421,2.075058-3.293869,3.8401871
	c-0.2881546,0.8745041-0.5221481,1.8874283-1.5442734,2.3376312c-0.5400848,0.2378769-0.5269241,0.7840805-0.5779648,1.2625732
	c-0.0363083,0.3403778-0.0070419,0.6877289-0.0070419,1.0724564c0.596344-0.1710739,1.2025757-0.3449783,1.8498306-0.5306625
	c0-0.6871948,0-1.3406525,0-2.0663071c0.5280991,0,1.0058899-0.0226669,1.4804993,0.0064926
	c0.4579697,0.0281372,0.6629028-0.1076126,0.8710938-0.5789566c0.7377777-1.6704178,1.5820999-3.2873306,3.1272964-4.4031448
	c1.7378693-1.2549362,3.4664688-2.5235367,5.1704407-3.8237991c0.2386017-0.1820679,0.428894-0.574707,0.4381866-0.876152
	c0.0141678-0.4601288-0.2108917-0.9238968-0.2247391-1.3893814c-0.0359879-1.2098312-0.3284378-2.4550247,0.6680756-3.5054474
	c1.1585236-1.2211838,2.2735443-2.4876938,3.3453522-3.7858505c0.7764816-0.9404755,1.5710068-1.9000397,2.1468124-2.9650879
	c1.1067734-2.0471649,1.1885757-4.3197861,1.1011429-6.5935516c-0.0059891-0.1556091-0.1010666-0.3358231-0.2093201-0.4549026
	c-0.696373-0.7660141-1.3700104-1.5587082-2.1236115-2.2652359c-1.0948944-1.0264969-2.3919678-1.6532898-3.9984055-1.7359695
	c0.1830902,0.1875763,0.3035812,0.306633,0.41922,0.4302368c0.5802536,0.6202164,0.4512253,1.2905884-0.3063202,1.6277237
	c-2.2351608,0.9947281-4.6005402,1.4392166-7.019722,1.6118317c-1.4873428,0.1061249-1.6088333,0.1473618-1.9723282,1.361908
	c-1.1693192,0.1020203-2.2674561-0.1214752-3.3413162-0.6212387c-1.5089111-0.70224-3.051712-1.3315048-4.5777817-1.9971313
	c-0.0816727-0.0356216-0.1425781-0.1189117-0.3853607-0.3291168c1.1410217,0.0773239,2.1060104,0.0347519,3.0197144,0.2310791
	c1.2311935,0.2645416,2.4206619,0.7207031,3.6338577,1.074646c0.1859055,0.0542297,0.4965591,0.0873566,0.5913162-0.0155563
	c0.9420319-1.0231323,2.2328262-0.9629822,3.4221878-1.0418549c1.8921204-0.1254883,3.7173004-0.4453506,5.6040192-1.2105026
	c-0.3413391-0.2354507-0.5692673-0.4681473-0.8446121-0.5628281c-0.3199234-0.1100159-0.6814194-0.0990143-1.0382462-0.1421585
	c-0.0299225-0.7100067,0.1247787-1.2196045,0.7615814-1.64534c1.5729218-1.0516052,3.084465-2.1956787,4.607605-3.3203201
	c0.1445999-0.106781,0.1969757-0.3385925,0.3317108-0.584549c-0.9498825,0.1827393-1.7634659,0.3392563-2.7434158,0.527771
	c0.1196594-0.4387207,0.1220779-0.7367554,0.2658691-0.9288406c1.0997849-1.4691544,2.3244934-2.835495,3.9432755-3.7343826
	c0.6565628-0.3645782,1.1002121-0.7827072,1.3018723-1.565773c-1.0201797,0.4255219-1.9787979,0.9984131-3.1816788,0.699707
	c0.0844269-0.1344757,0.119606-0.2279968,0.1849899-0.2892227c1.8455124-1.7280731,3.0704575-3.8741989,4.0858307-6.1491013
	c0.1831055-0.4102402,0.1503448-0.9169235,0.2327118-1.4858856c-1.380661,0.6621246-2.2719803,1.9269562-3.9682846,1.7001114
	c1.4116821-2.1890945,2.1080475-4.5578537,2.8094177-6.9488525c-0.9710617,0.5842438-1.5603561,1.8387909-2.9607468,1.4299088
	c0.9056015-1.5261307,1.9341507-2.976532,2.6619797-4.5648651c0.740715-1.6164856,0.7413712-3.411087,0.5418854-5.1956367
	c-0.748436,1.916172-2.1340103,3.3553581-3.3881226,4.9029274c-0.7564926,0.9335022-1.4314041,1.9954453-1.8624039,3.1084213
	c-0.278923,0.7202988-0.5026016,1.0686417-1.0964203,0.92659c-0.8714218,1.069397-1.6704025,2.048912-2.4683228,3.0292892
	c-1.247673,1.5329971-2.496254,3.0652542-3.7412567,4.6004105c-0.7090836,0.8743515-1.3417511,1.8243637-2.1350021,2.613327
	c-1.0117798,1.0063248-2.1476593,1.8883286-3.2363281,2.8165588c-0.9536362,0.8131027-1.9498825,1.5798416-2.8621368,2.4365234
	c-0.5802994,0.54496-1.3322983,0.9260712-1.2838135,2.0285645c0.0456238,1.0374756-0.269989,2.1169739-0.5664825,3.1373291
	c-0.4546204,1.5645447-2.0126495,2.3041992-3.3435593,1.7968292c0.4578094-0.8603134,1.0111313-1.6971512,1.3677139-2.6108398
	c0.8422775-2.1582336,1.8171616-4.2342606,3.5071487-5.8580322c0.6760178-0.6495209,0.9619217-1.3015289,0.7485809-2.0633469
	c-0.4086685-0.0764618-0.8543243-0.0362854-1.0849075-0.2399063c-0.2049713-0.181015-0.1715164-0.632309-0.2383118-0.9412384
	c-0.4960327,0.2287445-1.0436859,0.4812851-1.6699982,0.7701035c0.2694092-1.7676849,1.9579391-3.6107101,3.7384109-3.010704
	c-0.672966,0.3903656-0.8677444,0.9467697-0.6906738,1.5132599c0.5743179,0.2616272,1.0537186,0.480011,1.4690857,0.6692276
	c-0.0492554,0.5207443-0.086441,0.9138641-0.1446838,1.5295944c2.2220535-1.7667542,4.2441177-3.36306,5.196167-6.0370865
	c-0.3391266,0.0735092-0.6080627,0.1994476-0.8600616,0.1716537c-0.4548798-0.0501785-0.9233475-0.143631-1.3267899-0.3406525
	c-0.0729294-0.0356216,0.1237106-0.6583786,0.2229538-1.0022583c0.0933838-0.3235779,0.2225189-0.6368179,0.4063034-1.1518402
	c-0.8261108,0.3960876-1.4243851,0.68293-2.0853119,0.9998093c0.1880112-1.3031311,0.3695831-2.561615,0.5511551-3.8201065
	c-1.3098984,1.5337906-1.8627014,3.6611328-4.3373413,4.2018967c0.491745-1.3039932,0.9746399-2.3945618,1.3132553-3.5282669
	c0.4739151-1.5867004,1.4437256-3.0202026,1.4252853-4.7646332c-0.0067978-0.6421051,0.1746216-1.2842407,0.2388229-1.9294853
	c0.1205063-1.2112732,0.2181778-2.4248238,0.3413086-3.8180771c-0.2210083,0.2719841-0.3399124,0.4181404-0.4586411,0.5644493
	c-1.324295,1.6319351-1.8148041,3.6965218-2.8317261,5.5001526c-1.2144699,2.1540146-2.0828476,4.511795-3.0033035,6.8203583
	c-0.6142044,1.5404358-1.14151,3.1524963,0.0962906,4.4934082c-0.3369446,0.4405136-0.8282471,0.7918396-0.8683167,1.1887741
	c-0.1299667,1.2874985-0.1633987,2.5952225-0.0974731,3.8881912c0.0408936,0.8021469-0.0528107,1.1854401-0.7652206,1.4599991
	c-0.0930634,0.0358734-0.1965179,0.1684036-0.2097244,0.2675552c-0.0744247,0.5586548-0.2812576,1.1642075-0.1424713,1.6714935
	c0.2041626,0.7462158,0.635582,1.437561,1.0198059,2.1245117c0.2539215,0.4539948,0.3801651,0.8469162-0.0329208,1.228157
	c-0.3080139-0.1133041-0.575058-0.2115326-0.8434296-0.3102417c-0.5943527,1.762291-1.0196457,2.5372772-1.9471817,2.20047
	c0.95681-2.681778,0.846138-5.3465652-0.1953812-8.1582565c-0.097229,0.769104-0.1545563,1.3585281-0.2512589,1.9414215
	c-0.0683517,0.4119492-0.3678665,0.515007-0.6488266,0.2477798c-0.2043076-0.1943283-0.3716583-0.5210037-0.3912659-0.800209
	c-0.0884247-1.2590179,0.0083237-2.5439606-0.2039413-3.7778397c-0.2240295-1.3022232-0.59021-2.6168365-1.1314316-3.8191986
	c-0.8806229-1.9563751-2.5497131-3.0787888-4.5628128-3.7318573c-0.2148743-0.0697098-0.3942757-0.3406601-0.5260658-0.5572739
	c-0.3621712-0.5952988-0.6902504-1.2113647-1.0318222-1.8192062c-0.0747452,0.0351486-0.1494904,0.0703049-0.2242355,0.1054611
	c0.0499496,0.2897034,0.1498146,0.5811691,0.1396217,0.8687363c-0.0222359,0.6272659,0.4217377,1.4219666-0.4144363,1.7957611
	c-0.3516235,0.1571884-0.8407059,0.0558624-1.2591095,0.0048523c-1.1995087-0.1462479-2.2543793,0.2526703-3.2918816,0.7805862
	c-0.6800041,0.3460083-0.2247353,0.9524994-0.4109344,1.5091705c0.5626411-0.2304153,1.0517006-0.4551239,1.5572586-0.632843
	c1.1897469-0.4182358,2.3873672-0.8140564,3.6347656-1.2368927c0.0628891,1.0495377-0.2178574,1.3040009-1.0074005,1.389267
	c-0.6320343,0.0682602-1.2399673,0.3362732-1.8707123,0.4458237c-0.908493,0.1577911-0.8353996,0.9163055-1.0187645,1.5295792
	c-0.0281754,0.0942383-0.0906715,0.1779785-0.1353302,0.2675629c-0.4882317,0.9793625-0.9784317,1.957756-1.4633484,2.9387589
	c-0.4790421,0.9691162-0.6717682,1.9759827-0.4471474,3.0553513c0.1255684,0.6033936,0.4794502,0.7656403,0.979847,0.5182648
	c0.787426-0.3892746,1.5428581-0.8433151,2.3507309-1.2915192c-0.2268295,0.7192001-0.4668846,1.4803391-0.7069435,2.2414856
	c0.1934013-0.0936966,0.3418884-0.2365112,0.4169998-0.4109497c0.245369-0.5698547,0.5161018-1.1370316,0.6782188-1.732193
	c0.1611977-0.591774,0.530262-0.8818893,1.0770378-1.0038834c0.7516365-0.1677094,1.5043678-0.3359146,2.2633667-0.463974
	c1.4499779-0.2446213,2.6295357-0.7579498,2.8140335-2.4646759c0.0178871-0.165451,0.3483238-0.3656616,0.5670433-0.4235687
	c0.2773247-0.0734253,0.5887985-0.0177536,0.8305588-0.0177536c-0.0294342,3.1258087-2.526783,3.477684-4.6603394,4.2022171
	c0.3812027,1.0254745,0.1245308,1.9644928-0.3460007,2.724144c-0.745285,1.2032166-1.6452942,2.3234253-2.5741577,3.3970718
	c-1.6710472,1.9314957-2.0121956,4.0924225-0.9276962,6.3491135c0.5156288,1.0729523,0.6112556,2.1737213-0.0763054,3.2160797
	c-0.1144485,0.1735153-0.4691124,0.3340225-0.6602478,0.2869644c-1.0113792-0.2489929-2.0074539-0.5613098-3.0059624-0.8612442
	c-1.0537529-0.3165359-1.402729-0.0091019-1.5541267,1.0993881c-0.2998428,2.1954269-0.7725868,4.3697662-1.0069733,6.5706177
	c-0.1343765,1.2617874-0.8934174,2.3876572-0.1414986,3.882515c0.8291397,1.6483459,1.9395828,2.9158249,3.3256569,4.3354721
	c0-0.9146347,0-1.6223679,0-2.3751831c-0.6193619-0.1348724-1.2954521-0.2820816-1.7573853-0.3826675
	c-0.5849495-3.3025208-0.4790611-6.5365143,0.7137222-9.863678c0.8634911,0.3954163,1.7986031,0.6960678,2.5893364,1.216362
	c1.1180153,0.7356567,2.2300529,0.5688934,3.4466858,0.444191c1.1303253-0.1158447,1.3563614-0.7943649,1.5207863-1.6469574
	c0.04739-0.2457199,0.0075302-0.507164,0.0220375-0.7605743c0.0474129-0.8284073,0.0938416-1.6570206,0.1561699-2.484375
	c0.0307579-0.4082947,0.2322044-0.6076813,0.684948-0.5875092c0.7610817,0.033905,1.5330238-0.0589905,2.2846184,0.0319672
	c0.5498009,0.0665359,1.1615486,0.225441,1.5930901,0.547699c1.1258774,0.8407898,2.1678925,1.7939911,3.1428604,2.6174774
	c-1.2768173,0.2758255-2.4723511-0.2235718-3.4900093-1.3126144c-0.282486-0.3023071-0.6533318-0.561203-1.0331688-0.7251511
	c-0.830719-0.3585587-1.8385277,0.0820541-1.9687309,0.771759c-0.3410454,1.8065796-0.7192039,3.6062241-1.0516205,5.4143219
	c-0.1444397,0.7856369-0.50177,1.6923981-0.2557449,2.3561478c0.5094261,1.3743744,0.555439,2.7396164,0.5538406,4.1467819
	c-0.0002365,0.2076874,0.0508118,0.4938354,0.1898079,0.6105804
	C60.8122749,111.400856,61.7386971,112.1157684,62.6648331,112.8507004z M95.2341843,91.8689346
	c0.4766006,0.48629,0.8807068,0.869278,1.2501221,1.2832413c0.4212646,0.4720764,1.135437,0.9601288,1.15345,1.4616852
	c0.0499649,1.3914032-0.1099014,2.8078461-0.3423233,4.188179c-0.4578552,2.7192307-1.2246017,5.4008408-0.9549255,8.1972427
	c0.079361,0.8228836,0.317215,1.6304626,0.5191803,2.6262665c0.4438095-0.6330566,0.748558-1.0677643,1.057869-1.5089798
	c0.8832092,1.0784988,1.0993423,2.6113052,2.4689026,3.2763519c-0.1511612-1.0538635-0.2967911-2.0691299-0.4440994-3.096138
	c1.1298141,0.0732803,1.8884888,0.6116638,2.4709015,1.3299713c1.2464981,1.537323,1.9747391,3.3327713,2.2987137,5.2782135
	c0.1707153,1.0251465,0.7933426,1.6550064,1.7333908,2.3315277c-0.0901794-0.5010376-0.1809921-0.808075-0.1955643-1.1186981
	c-0.0932312-1.9869156-0.5423279-3.9083099-1.2635193-5.7404633c-0.4660492-1.1839828-1.1899414-2.2556686-2.4320831-2.8509293
	c-0.2504883-0.1200333-0.4656525-0.4238586-0.583786-0.6927872c-0.8771744-1.9968491-0.8681717-4.1239471-0.7271423-6.2287674
	c0.0752869-1.1236725,0.4260178-2.2401199,0.7451248-3.3327179c0.2636795-0.9028244,0.6895981-1.7568207,0.9976273-2.6483612
	c0.660553-1.9118881-0.5629196-3.4405975-2.1434555-3.8721085C98.8710327,90.2134094,97.1327286,90.9347839,95.2341843,91.8689346z
	 M64.9373398,122.9048233c0.0722275,0.0314102,0.1444473,0.0628204,0.2166672,0.0942307
	c0.4243164-0.2081985,0.8300323-0.4789047,1.2766953-0.6120071c1.0368042-0.3089752,1.4258347-0.9498444,1.2322083-2.0057755
	c-0.0463867-0.2529449-0.0463333-0.6172638,0.0995483-0.7833633c0.4379425-0.4986343,1.000824-0.8874741,1.4383926-1.3863678
	c1.0402603-1.186058,1.9864578-2.4575958,3.0626068-3.608551c1.4757462-1.5783157,2.9103241-3.2367935,4.9018478-4.2053986
	c0.7103119-0.3454742,0.9499435-0.7563477,0.659584-1.4896851c-0.4339371-1.0959549-0.2687836-2.0226059,0.7134857-2.7876587
	c0.6994934-0.5447998,1.3252029-1.1844177,2.1173325-1.9027863c-0.5545959,0.049469-0.8775711,0.0961151-1.2015076,0.1042404
	c-1.9013443,0.0476761-3.8027802,0.0998154-5.7044983,0.1184616c-0.4694061,0.0046158-0.8205261,0.0293655-0.7621078,0.6292343
	c0.0581665,0.5974045,0.0242386,1.2164688,0.1724701,1.7893066c0.2038956,0.7879181,0.6290588,1.5230789,0.7929306,2.3153152
	c0.1269455,0.6136932,0.5965271,1.3174896-0.193634,1.9107361c-0.9992981,0.7502441-1.9275894,1.5946579-2.9199295,2.3547974
	c-1.5163651,1.1615219-2.9036636,2.3926544-3.2152405,4.4333191c-0.0343552,0.2250443-0.2857895,0.4430542-0.4816284,0.6120377
	c-0.4698868,0.4054337-1.1993408,0.6848679-1.4036407,1.1865234
	C65.32444,120.6891785,65.1882553,121.8203888,64.9373398,122.9048233z M69.1448364,81.9812775
	c0.216423-0.2677536,0.6143951-0.536171,0.6065674-0.7921753c-0.0240479-0.7867279-0.1323853-1.5882874-0.3413315-2.3473358
	c-0.2371902-0.8616638-0.6184464-1.6836472-0.9467316-2.5483398c0.4074478-0.0796432,0.6337128-0.1238708,0.9851456-0.1925659
	c-1.1179733-1.1816177-2.8858032-1.9111252-2.0392303-4.0172806c-0.4000092,0-0.698761,0.0090179-0.9967728-0.0020294
	c-0.4929886-0.0182724-0.7314148-0.336937-0.6342697-0.768158c0.1753006-0.7780533-0.3534546-0.9530716-0.8403397-0.8770676
	c-0.7884216,0.1230698-1.5469818,0.4376907-2.4929199,0.7244034c3.6014175,2.0521698,5.1260071,5.048317,5.090477,8.8026733
	C68.5940247,80.2372894,68.6878204,81.1941452,69.1448364,81.9812775z M73.1959229,85.3226242
	c-0.6807785,1.5788727-1.29673,3.0074158-1.9004059,4.4074707C72.6691971,89.2561798,73.5018768,87.4701996,73.1959229,85.3226242z
	 M80.8590469,94.136467c-1.0686417,1.3049698-2.1194534-0.0704346-3.2017365,0.0407867
	c0.6661453,0.2841034,1.3482285,0.5208664,2.040947,0.720726C80.5365372,95.1398315,80.6582336,95.0486069,80.8590469,94.136467z
	 M69.3752899,85.7587891c0,0.6743546,0,1.2797089,0,1.8214035c0.1970901-0.2184067,0.4024506-0.4459763,0.5991821-0.6639862
	C69.8020401,86.5831299,69.6101074,86.2123871,69.3752899,85.7587891z"/>
<path class="st3" d="M91.1808472,46.5248184c1.3783951,0.3061218,2.6863861,0.5966072,3.9943695,0.8870926
	c0.0132294,0.0486031,0.0264511,0.0972061,0.0396729,0.1458092c-1.2930298,0.3178253-2.5860596,0.6356506-4.0347366,0.9917336
	c1.3191452,2.0673065,2.6190948,4.1045341,3.9190521,6.1417694c-0.0381927,0.0446434-0.0763931,0.0892906-0.1145859,0.1339378
	c-2.0258255-1.7266808-4.051651-3.4533653-6.1105804-5.2082672c-2.392189,2.0799217-4.768898,4.1463814-7.1456146,6.2128448
	c-0.0685425-0.0597725-0.137085-0.119545-0.2056274-0.1793213c1.3770905-2.4390831,3.2619858-4.5357857,4.8378067-6.8457985
	c-1.4766388-0.3427658-2.9174423-0.6772156-4.3582382-1.0116615c-0.0085907-0.0751038-0.0171814-0.1502075-0.0257721-0.2253113
	c1.4439545-0.582798,3.0034332-0.7222214,4.6241074-1.0530319c-1.91716-2.7780762-3.82341-5.5403481-5.72966-8.3026199
	c0.0499878-0.0423775,0.0999756-0.0847549,0.1499557-0.1271362c2.2731094,2.1101952,4.5462265,4.2203903,6.920311,6.4243202
	c0.3075485-1.0152855,0.5930252-1.9576912,0.8785019-2.9001007c0.0459518,0.0084648,0.0919037,0.0169296,0.1378555,0.0253944
	c0.2439117,1.1681938,0.4878311,2.3363838,0.7801056,3.7361908c1.8721619-1.7125893,3.6136627-3.3056526,5.3551559-4.8987122
	c0.0517502,0.0404205,0.1034927,0.0808411,0.1552429,0.1212616C93.9010849,42.5577431,92.5539932,44.5222778,91.1808472,46.5248184z
	"/>
<path class="st3" d="M69.3752899,85.7587891c0.2348175,0.453598,0.4267502,0.8243408,0.5991821,1.1574173
	c-0.1967316,0.2180099-0.402092,0.4455795-0.5991821,0.6639862C69.3752899,87.0384979,69.3752899,86.4331436,69.3752899,85.7587891z
	"/>
<path class="st3" d="M81.8397293,82.2606049c0,0.6555176,0,1.1521072,0,1.4856491
	c0.7372437,0.3208847,1.3709412,0.5967102,2.1815186,0.9495239c-1.8630447,1.3527222-0.6429443,3.0940094-1.0309906,4.5944214
	c-0.4970856,0-0.9953079,0-1.6457825,0c0.1419373-1.1250916,0.2827377-2.2413025,0.4152222-3.2914963
	c-0.3419113-0.0208588-0.8457489,0.0944061-1.0560684-0.1031342c-0.2377396-0.2233047-0.2118683-0.7275467-0.3202057-1.1938705
	c-1.1220627,0.1218109-2.2211761,0.241127-3.3202896,0.3604507c-0.0321579-0.0841904-0.0643158-0.1683731-0.0964661-0.2525558
	C78.5544052,83.9790802,80.1421356,83.1485748,81.8397293,82.2606049z M79.8021011,84.0056229
	c0.0173187,0.0533752,0.0346451,0.1067429,0.0519638,0.1601181c0.3361588-0.0373459,0.6723175-0.0746918,1.0183868-0.1131363
	c0.0684509,0.3134995,0.1134796,0.6358337,0.216301,0.9385147c0.0468063,0.1377792,0.2335815,0.3521118,0.3129349,0.3344193
	c0.4952316-0.1103821,0.9780197-0.2765808,1.4649277-0.4242859c-0.0068817-0.058815-0.0137634-0.1176376-0.0206451-0.1764526
	c-0.527359,0-1.0547104,0-1.6305161,0c0-0.4686508,0-0.8619461,0-1.3505478
	C80.6921539,83.6080246,80.2471313,83.8068237,79.8021011,84.0056229z"/>
<path class="st3" d="M88.0914383,84.3460236c0-1.0425491,0.0001755-2.0850906-0.0000458-3.1276321
	c-0.000206-0.9637222-0.0003967-0.9637222-0.9232025-1.3036194c0-0.4322433,0-0.8833008,0-1.4719543
	c-0.9162674,0.1168823-1.7681656,0.2255478-2.6200638,0.3342209c-0.0346146-0.041748-0.0692215-0.0834885-0.1038361-0.1252365
	c1.3594208-1.1315002,2.7188416-2.2629929,4.2477341-3.5355606c-0.0657806,1.2342606-0.1206512,2.2638626-0.1783295,3.3460922
	c0.4098969,0.0234604,0.728653,0.0417023,1.1017914,0.0630569c0,1.3344421,0.0103607,2.628624-0.00354,3.922554
	c-0.0097733,0.9107819-0.6886749,1.3850327-1.24263,1.9350052C88.2766876,84.3706436,88.1840668,84.3583298,88.0914383,84.3460236z
	 M88.7003021,82.759407c0.0707169,0.0028915,0.1414261,0.0057831,0.2121353,0.0086746
	c0.1723862-1.2168961,0.1732712-2.4315109-0.1370163-3.6399231c-0.2906952-0.0191574-0.5361862-0.0353317-0.8375397-0.055191
	c0-0.7965012,0-1.5458374,0-2.4310455c-0.5484695,0.4464569-0.9922485,0.8076859-1.5383987,1.2522583
	c0.5424271-0.0639191,0.9401779-0.1107864,1.3504486-0.1591339c0.1220627,0.8345337-0.2914276,1.7735596,0.8181763,2.1184387
	c0.0918732,0.0285568,0.1231461,0.3573914,0.1264648,0.5476837C88.7082443,81.1870499,88.7003021,81.9732971,88.7003021,82.759407z"
	/>
<path class="st3" d="M59.4868011,75.3840637c-0.3586807,0.6987457-0.6854744,1.358902-1.0364799,2.0059052
	c-0.1168518,0.2153931-0.2862587,0.4055405-0.4504738,0.5904922c-0.0779648,0.0878067-0.25317,0.2170181-0.2940865,0.1901093
	c-0.3946648-0.2595444-0.8056259-0.514534-1.1266098-0.8520508c-0.0824089-0.0866547,0.0687408-0.5261688,0.2288361-0.6895676
	c0.5618172-0.5734024,1.1612663-1.1127319,1.7774467-1.6278534c0.1410332-0.117897,0.4295845-0.1593094,0.6062431-0.1014481
	C59.3233871,74.9427872,59.3841858,75.2026291,59.4868011,75.3840637z"/>
</svg>
